<svg xmlns="http://www.w3.org/2000/svg" xmlns:xlink="http://www.w3.org/1999/xlink" width="1080" zoomAndPan="magnify" viewBox="0 0 810 809.999993" height="1080" preserveAspectRatio="xMidYMid meet" version="1.0"><defs><g/><clipPath id="15640d75fd"><path d="M 207 315.46875 L 251 315.46875 L 251 351 L 207 351 Z M 207 315.46875 " clip-rule="nonzero"/></clipPath><clipPath id="981e3172c4"><path d="M 283 383 L 318.390625 383 L 318.390625 427 L 283 427 Z M 283 383 " clip-rule="nonzero"/></clipPath><clipPath id="db5a286f0c"><path d="M 207 459 L 251 459 L 251 494.71875 L 207 494.71875 Z M 207 459 " clip-rule="nonzero"/></clipPath><clipPath id="9361f0cb3a"><path d="M 139.140625 383 L 175 383 L 175 427 L 139.140625 427 Z M 139.140625 383 " clip-rule="nonzero"/></clipPath></defs><path fill="#9ec536" d="M 291 340.535156 L 266.972656 364.5625 C 260.800781 358.703125 253.277344 354.300781 244.921875 351.769531 L 253.730469 318.972656 C 267.910156 323.0625 280.632812 330.585938 291 340.535156 Z M 291 340.535156 " fill-opacity="1" fill-rule="nonzero"/><path fill="#3d5eac" d="M 291 469.789062 C 280.632812 479.742188 267.910156 487.230469 253.730469 491.320312 L 244.921875 458.558594 C 253.277344 456.027344 260.800781 451.625 266.972656 445.761719 Z M 291 469.789062 " fill-opacity="1" fill-rule="nonzero"/><path fill="#0172bb" d="M 314.992188 430.058594 C 310.902344 444.238281 303.414062 456.960938 293.460938 467.328125 L 269.433594 443.300781 C 275.261719 437.128906 279.699219 429.605469 282.195312 421.25 Z M 314.992188 430.058594 " fill-opacity="1" fill-rule="nonzero"/><g clip-path="url(#15640d75fd)"><path fill="#fff300" d="M 250.367188 318.070312 L 241.558594 350.902344 C 237.46875 349.933594 233.203125 349.414062 228.835938 349.414062 C 224.46875 349.414062 220.203125 349.933594 216.109375 350.902344 L 207.304688 318.070312 C 214.203125 316.371094 221.414062 315.46875 228.835938 315.46875 C 236.253906 315.46875 243.464844 316.371094 250.367188 318.070312 Z M 250.367188 318.070312 " fill-opacity="1" fill-rule="nonzero"/></g><g clip-path="url(#981e3172c4)"><path fill="#00a289" d="M 318.53125 405.164062 C 318.53125 412.582031 317.59375 419.796875 315.894531 426.695312 L 283.0625 417.886719 C 284.03125 413.796875 284.550781 409.53125 284.550781 405.164062 C 284.550781 400.796875 284.03125 396.53125 283.0625 392.4375 L 315.894531 383.632812 C 317.59375 390.53125 318.53125 397.742188 318.53125 405.164062 Z M 318.53125 405.164062 " fill-opacity="1" fill-rule="nonzero"/></g><path fill="#4eaf43" d="M 314.992188 380.269531 L 282.195312 389.078125 C 279.699219 380.71875 275.261719 373.195312 269.433594 367.023438 L 293.460938 343 C 303.414062 353.332031 310.902344 366.089844 314.992188 380.269531 Z M 314.992188 380.269531 " fill-opacity="1" fill-rule="nonzero"/><path fill="#b6207e" d="M 212.714844 458.558594 L 203.941406 491.320312 C 189.761719 487.230469 177.003906 479.742188 166.671875 469.789062 L 190.664062 445.761719 C 196.832031 451.589844 204.359375 456.027344 212.714844 458.558594 Z M 212.714844 458.558594 " fill-opacity="1" fill-rule="nonzero"/><g clip-path="url(#db5a286f0c)"><path fill="#702c90" d="M 250.367188 492.257812 C 243.464844 493.957031 236.253906 494.859375 228.835938 494.859375 C 221.414062 494.859375 214.203125 493.957031 207.304688 492.257812 L 216.109375 459.425781 C 220.203125 460.394531 224.46875 460.914062 228.835938 460.914062 C 233.203125 460.914062 237.46875 460.394531 241.558594 459.425781 Z M 250.367188 492.257812 " fill-opacity="1" fill-rule="nonzero"/></g><g clip-path="url(#9361f0cb3a)"><path fill="#f15b22" d="M 173.085938 405.164062 C 173.085938 409.53125 173.605469 413.796875 174.574219 417.886719 L 141.742188 426.695312 C 140.042969 419.796875 139.140625 412.582031 139.140625 405.164062 C 139.140625 397.742188 140.042969 390.53125 141.742188 383.632812 L 174.574219 392.4375 C 173.605469 396.53125 173.085938 400.796875 173.085938 405.164062 Z M 173.085938 405.164062 " fill-opacity="1" fill-rule="nonzero"/></g><path fill="#ffc20f" d="M 212.714844 351.769531 C 204.359375 354.300781 196.832031 358.738281 190.664062 364.5625 L 166.671875 340.535156 C 177.003906 330.585938 189.761719 323.0625 203.941406 318.972656 Z M 212.714844 351.769531 " fill-opacity="1" fill-rule="nonzero"/><path fill="#ef1c26" d="M 188.199219 443.335938 L 164.207031 467.328125 C 154.222656 456.960938 146.734375 444.238281 142.644531 430.058594 L 175.441406 421.25 C 177.972656 429.605469 182.375 437.164062 188.199219 443.335938 Z M 188.199219 443.335938 " fill-opacity="1" fill-rule="nonzero"/><path fill="#f9931d" d="M 188.199219 366.992188 C 182.375 373.164062 177.972656 380.71875 175.441406 389.078125 L 142.644531 380.269531 C 146.734375 366.089844 154.222656 353.332031 164.207031 343 Z M 188.199219 366.992188 " fill-opacity="1" fill-rule="nonzero"/><g fill="#000000" fill-opacity="1"><g transform="translate(334.424987, 428.999998)"><g><path d="M 31.640625 0 L 31.640625 -24.078125 L 16.03125 -24.078125 L 16.03125 0 L 3.890625 0 L 3.890625 -44.203125 L 2.796875 -52.296875 L 16.03125 -53.40625 L 16.03125 -32.0625 L 31.640625 -32.0625 L 31.640625 -52.359375 L 43.75 -53.4375 L 43.75 0 Z M 31.640625 0 "/></g></g></g><g fill="#000000" fill-opacity="1"><g transform="translate(383.422188, 428.999998)"><g><path d="M 25.515625 -38.25 L 36.921875 -39.40625 L 36.921875 0 L 25.515625 0 L 25.515625 -5.703125 L 21.625 -0.390625 C 21.164062 -0.171875 20.476562 0.046875 19.5625 0.265625 C 18.65625 0.484375 17.722656 0.59375 16.765625 0.59375 C 14.566406 0.59375 12.695312 0.242188 11.15625 -0.453125 C 9.625 -1.148438 8.367188 -2.125 7.390625 -3.375 C 6.410156 -4.625 5.691406 -6.101562 5.234375 -7.8125 C 4.773438 -9.53125 4.546875 -11.40625 4.546875 -13.4375 L 4.546875 -38.25 L 15.953125 -39.40625 L 15.953125 -13.4375 C 15.953125 -11.5 16.234375 -9.941406 16.796875 -8.765625 C 17.359375 -7.585938 18.289062 -7 19.59375 -7 C 20.039062 -7 20.523438 -7.070312 21.046875 -7.21875 C 21.578125 -7.375 22.097656 -7.578125 22.609375 -7.828125 C 23.117188 -8.085938 23.625 -8.375 24.125 -8.6875 C 24.632812 -9.007812 25.097656 -9.332031 25.515625 -9.65625 Z M 25.515625 -38.25 "/></g></g></g><g fill="#000000" fill-opacity="1"><g transform="translate(425.419783, 428.999998)"><g><path d="M 35.0625 -5.53125 C 34.207031 -4.644531 33.273438 -3.828125 32.265625 -3.078125 C 31.265625 -2.328125 30.15625 -1.679688 28.9375 -1.140625 C 27.726562 -0.609375 26.398438 -0.191406 24.953125 0.109375 C 23.503906 0.410156 21.90625 0.5625 20.15625 0.5625 C 16.800781 0.5625 13.929688 0.015625 11.546875 -1.078125 C 9.171875 -2.179688 7.226562 -3.644531 5.71875 -5.46875 C 4.21875 -7.300781 3.125 -9.40625 2.4375 -11.78125 C 1.75 -14.164062 1.40625 -16.65625 1.40625 -19.25 C 1.40625 -20.90625 1.566406 -22.539062 1.890625 -24.15625 C 2.210938 -25.78125 2.707031 -27.320312 3.375 -28.78125 C 4.039062 -30.238281 4.867188 -31.597656 5.859375 -32.859375 C 6.847656 -34.117188 8.007812 -35.203125 9.34375 -36.109375 C 10.675781 -37.023438 12.175781 -37.742188 13.84375 -38.265625 C 15.507812 -38.796875 17.347656 -39.0625 19.359375 -39.0625 C 22.160156 -39.0625 24.585938 -38.644531 26.640625 -37.8125 C 28.691406 -36.988281 30.378906 -35.832031 31.703125 -34.34375 C 33.035156 -32.863281 34.03125 -31.085938 34.6875 -29.015625 C 35.34375 -26.941406 35.671875 -24.644531 35.671875 -22.125 C 35.671875 -21.488281 35.628906 -20.65625 35.546875 -19.625 C 35.460938 -18.601562 35.363281 -17.5 35.25 -16.3125 L 11.796875 -16.3125 C 11.835938 -15.050781 12.101562 -13.851562 12.59375 -12.71875 C 13.082031 -11.59375 13.726562 -10.609375 14.53125 -9.765625 C 15.34375 -8.921875 16.285156 -8.25 17.359375 -7.75 C 18.429688 -7.25 19.597656 -7 20.859375 -7 C 21.890625 -7 22.863281 -7.113281 23.78125 -7.34375 C 24.707031 -7.582031 25.546875 -7.867188 26.296875 -8.203125 C 27.054688 -8.546875 27.726562 -8.894531 28.3125 -9.25 C 28.894531 -9.613281 29.351562 -9.9375 29.6875 -10.21875 Z M 25.71875 -23.515625 C 25.71875 -24.585938 25.632812 -25.601562 25.46875 -26.5625 C 25.3125 -27.519531 25.007812 -28.363281 24.5625 -29.09375 C 24.125 -29.832031 23.523438 -30.414062 22.765625 -30.84375 C 22.003906 -31.28125 21.03125 -31.5 19.84375 -31.5 C 18.84375 -31.5 17.960938 -31.320312 17.203125 -30.96875 C 16.441406 -30.625 15.785156 -30.1875 15.234375 -29.65625 C 14.691406 -29.132812 14.242188 -28.582031 13.890625 -28 C 13.546875 -27.414062 13.28125 -26.898438 13.09375 -26.453125 L 9.90625 -22.859375 L 15.953125 -23.484375 Z M 25.71875 -23.515625 "/></g></g></g><g fill="#000000" fill-opacity="1"><g transform="translate(463.91758, 428.999998)"><g><path d="M 45.15625 -52.5 L 30.796875 -7.140625 L 29.78125 0.875 L 16.140625 -0.171875 L -0.5625 -52.21875 L 10.703125 -53.40625 L 19.5625 -24.5 L 22.859375 -9.09375 L 25.265625 -24.5 L 33.953125 -52.5 Z M 45.15625 -52.5 "/></g></g></g><g fill="#000000" fill-opacity="1"><g transform="translate(505.915095, 428.999998)"><g><path d="M 15.46875 0 L 4.40625 0 L 4.40625 -36.71875 L 15.46875 -37.828125 Z M 4.203125 -52.5 L 15.6875 -52.5 L 15.6875 -44.421875 L 4.203125 -44.421875 Z M 4.203125 -52.5 "/></g></g></g><g fill="#000000" fill-opacity="1"><g transform="translate(526.913892, 428.999998)"><g><path d="M 35.0625 -5.53125 C 34.207031 -4.644531 33.273438 -3.828125 32.265625 -3.078125 C 31.265625 -2.328125 30.15625 -1.679688 28.9375 -1.140625 C 27.726562 -0.609375 26.398438 -0.191406 24.953125 0.109375 C 23.503906 0.410156 21.90625 0.5625 20.15625 0.5625 C 16.800781 0.5625 13.929688 0.015625 11.546875 -1.078125 C 9.171875 -2.179688 7.226562 -3.644531 5.71875 -5.46875 C 4.21875 -7.300781 3.125 -9.40625 2.4375 -11.78125 C 1.75 -14.164062 1.40625 -16.65625 1.40625 -19.25 C 1.40625 -20.90625 1.566406 -22.539062 1.890625 -24.15625 C 2.210938 -25.78125 2.707031 -27.320312 3.375 -28.78125 C 4.039062 -30.238281 4.867188 -31.597656 5.859375 -32.859375 C 6.847656 -34.117188 8.007812 -35.203125 9.34375 -36.109375 C 10.675781 -37.023438 12.175781 -37.742188 13.84375 -38.265625 C 15.507812 -38.796875 17.347656 -39.0625 19.359375 -39.0625 C 22.160156 -39.0625 24.585938 -38.644531 26.640625 -37.8125 C 28.691406 -36.988281 30.378906 -35.832031 31.703125 -34.34375 C 33.035156 -32.863281 34.03125 -31.085938 34.6875 -29.015625 C 35.34375 -26.941406 35.671875 -24.644531 35.671875 -22.125 C 35.671875 -21.488281 35.628906 -20.65625 35.546875 -19.625 C 35.460938 -18.601562 35.363281 -17.5 35.25 -16.3125 L 11.796875 -16.3125 C 11.835938 -15.050781 12.101562 -13.851562 12.59375 -12.71875 C 13.082031 -11.59375 13.726562 -10.609375 14.53125 -9.765625 C 15.34375 -8.921875 16.285156 -8.25 17.359375 -7.75 C 18.429688 -7.25 19.597656 -7 20.859375 -7 C 21.890625 -7 22.863281 -7.113281 23.78125 -7.34375 C 24.707031 -7.582031 25.546875 -7.867188 26.296875 -8.203125 C 27.054688 -8.546875 27.726562 -8.894531 28.3125 -9.25 C 28.894531 -9.613281 29.351562 -9.9375 29.6875 -10.21875 Z M 25.71875 -23.515625 C 25.71875 -24.585938 25.632812 -25.601562 25.46875 -26.5625 C 25.3125 -27.519531 25.007812 -28.363281 24.5625 -29.09375 C 24.125 -29.832031 23.523438 -30.414062 22.765625 -30.84375 C 22.003906 -31.28125 21.03125 -31.5 19.84375 -31.5 C 18.84375 -31.5 17.960938 -31.320312 17.203125 -30.96875 C 16.441406 -30.625 15.785156 -30.1875 15.234375 -29.65625 C 14.691406 -29.132812 14.242188 -28.582031 13.890625 -28 C 13.546875 -27.414062 13.28125 -26.898438 13.09375 -26.453125 L 9.90625 -22.859375 L 15.953125 -23.484375 Z M 25.71875 -23.515625 "/></g></g></g><g fill="#000000" fill-opacity="1"><g transform="translate(563.661762, 428.999998)"><g><path d="M 33.390625 -28 L 36.015625 -9.515625 L 38.109375 -28 L 40.59375 -38.296875 L 51.28125 -39.34375 L 40.390625 0 L 31.25 0 L 28.625 -10.5 L 26.28125 -28.703125 L 23.734375 -10.5 L 21.34375 0 L 12.21875 0 L 1.6875 -38.25 L 12.390625 -39.40625 L 14.984375 -28 L 17.296875 -9.453125 L 19.734375 -28 L 22.328125 -38.5 L 30.96875 -38.5 Z M 33.390625 -28 "/></g></g></g></svg>